#!OML:ASF E:\Mandelcareful walks\Project 1\Capture day 1\Session 1\Subject1.ASF
:FULLY-SPECIFIED
:DEGREES
1303
root -2.23466 15.5309 2.86004 -350.181 166.36 -367.534
lowerback 50.3555 -0.640351 -4.0769
upperback 6.35437 0.75033 2.45663
thorax -13.6504 1.70514 3.98179
lowerneck -31.5611 -5.67832 -6.4366
upperneck 23.0504 -5.6314 2.59967
head 13.1977 -2.65428 0.938627
rclavicle -1.35174e-014 9.54166e-015
rhumerus -10.3967 -5.6413 -73.3638
rradius 57.6534
rwrist -25.0203
rhand -20.6595 -27.1041
rfingers 7.12502
rthumb 5.7031 -57.0074
lclavicle -1.35174e-014 9.54166e-015
lhumerus -11.6765 -22.6466 78.9388
lradius 67.3124
lwrist 23.8588
lhand -30.8707 -19.2014
lfingers 7.12502
lthumb -4.15825 10.7378
rfemur -55.0284 -10.6822 16.3427
rtibia 56.7599
rfoot -13.9695 -16.8098
rtoes 25.0157
lfemur -30.2326 23.7511 -23.3511
ltibia 61.3096
lfoot -27.7322 19.9416
ltoes -17.1154
1304
root -2.16893 15.5042 2.75713 -349.884 165.217 -367.671
lowerback 49.7453 -0.364957 -4.44524
upperback 6.4553 0.836617 2.47392
thorax -13.4411 1.7196 4.14951
lowerneck -31.51 -5.7142 -6.52649
upperneck 23.0369 -5.75075 2.92495
head 13.2041 -2.66748 1.05772
rclavicle -1.90833e-014 -1.98785e-014
rhumerus -10.2697 -5.57348 -73.533
rradius 57.6536
rwrist -24.9088
rhand -20.8215 -26.819
rfingers 7.12502
rthumb 5.54665 -56.7264
lclavicle -1.90833e-014 -1.98785e-014
lhumerus -10.9763 -22.6342 78.7053
lradius 66.2346
lwrist 23.7732
lhand -31.1125 -19.5403
lfingers 7.12502
lthumb -4.39177 10.3942
rfemur -55.7175 -10.5718 16.7031
rtibia 57.3983
rfoot -14.2112 -15.809
rtoes 25.4001
lfemur -30.1013 24.4753 -23.2994
ltibia 61.4587
lfoot -27.7545 19.7824
ltoes -17.0792
1305
root -2.10889 15.5084 2.65693 -349.708 164.245 -367.808
lowerback 49.3258 -0.212839 -4.61542
upperback 6.53143 0.901971 2.52042
thorax -13.2911 1.72761 4.26247
lowerneck -31.4477 -5.8577 -6.78975
upperneck 22.9476 -5.94865 3.28909
head 13.1904 -2.72548 1.20361
rclavicle 4.21423e-014 2.3059e-014
rhumerus -10.1181 -5.51596 -73.4556
rradius 57.6548
rwrist -24.8527
rhand -21.133 -26.6667
rfingers 7.12502
rthumb 5.24592 -56.5817
lclavicle 4.21423e-014 2.3059e-014
lhumerus -10.9208 -22.3684 78.75
lradius 66.0586
lwrist 23.4084
lhand -31.0243 -19.4166
lfingers 7.12502
lthumb -4.30664 10.5196
rfemur -55.9026 -9.99421 16.717
rtibia 57.8052
rfoot -14.8735 -15.3629
rtoes 26.4313
lfemur -29.6753 24.8611 -23.1136
ltibia 61.462
lfoot -28.1527 19.256
ltoes -16.021
1306
root -2.0419 15.5012 2.55851 -349.276 163.103 -367.81
lowerback 47.6034 0.0462804 -4.88173
upperback 7.64103 1.1123 2.53779
thorax -13.161 1.79966 4.48758
lowerneck -31.3459 -6.01063 -6.90158
upperneck 22.9403 -6.16038 3.42474
head 13.1906 -2.809 1.23273
rclavicle -8.74653e-015 -5.64548e-014
rhumerus -9.92009 -5.31506 -73.2056
rradius 57.4897
rwrist -24.9858
rhand -21.4408 -26.4826
rfingers 7.12502
rthumb 4.94875 -56.4048
lclavicle -8.74653e-015 -5.64548e-014
lhumerus -11.0471 -22.3182 78.8447
lradius 65.9273
lwrist 23.3236
lhand -30.8612 -19.4439
lfingers 7.12502
lthumb -4.14914 10.4955
rfemur -56.4644 -9.30569 16.9843
rtibia 58.3437
rfoot -15.2187 -14.9645
rtoes 26.3905
lfemur -29.5413 25.3514 -22.849
ltibia 61.6466
lfoot -28.4619 18.721
ltoes -15.1756
1307
root -1.9764 15.4757 2.46199 -348.692 161.991 -367.844
lowerback 46.5267 0.310973 -5.28469
upperback 7.70657 1.20134 2.7428
thorax -12.8203 1.79721 4.90482
lowerneck -31.3436 -6.15783 -7.5189
upperneck 23.1497 -6.2261 3.8919
head 13.3238 -2.82387 1.50283
rclavicle 9.54166e-015 -3.97569e-015
rhumerus -9.7377 -4.82325 -73.0362
rradius 57.4215
rwrist -24.9504
rhand -21.2497 -26.6057
rfingers 7.12502
rthumb 5.13325 -56.5235
lclavicle 9.54166e-015 -3.97569e-015
lhumerus -11.4143 -22.0394 79.0296
lradius 65.897
lwrist 23.3752
lhand -30.9494 -19.4851
lfingers 7.12502
lthumb -4.2343 10.4525
rfemur -57.2592 -8.78189 17.3999
rtibia 58.9553
rfoot -15.0376 -14.706
rtoes 24.0266
lfemur -29.7207 25.7738 -22.7499
ltibia 61.9299
lfoot -28.298 18.6015
ltoes -15.609
1308
root -1.91448 15.4391 2.3634 -348.366 161.111 -367.918
lowerback 45.8128 0.408707 -5.29998
upperback 7.74187 1.27072 2.76493
thorax -12.5965 1.79364 4.92064
lowerneck -31.3028 -6.42371 -8.19702
upperneck 23.2957 -6.5463 4.70044
head 13.4611 -2.90595 1.86752
rclavicle 6.75868e-014 -7.71285e-014
rhumerus -9.70355 -5.27341 -73.2612
rradius 57.4153
rwrist -24.3682
rhand -20.8131 -26.9895
rfingers 7.12502
rthumb 5.55482 -56.8967
lclavicle 6.75868e-014 -7.71285e-014
lhumerus -11.563 -22.3559 78.8303
lradius 65.8669
lwrist 23.5873
lhand -31.1718 -19.3941
lfingers 7.12502
lthumb -4.44908 10.5391
rfemur -57.7848 -8.70227 17.8092
rtibia 59.6129
rfoot -15.084 -14.0549
rtoes 22.401
lfemur -29.6577 25.9676 -22.5471
ltibia 62.2839
lfoot -27.9819 18.5309
ltoes -16.5166
1309
root -1.8555 15.4134 2.25995 -348.309 160.522 -368.026
lowerback 45.454 0.300589 -4.95598
upperback 7.75383 1.2576 2.65757
thorax -12.48 1.76196 4.63837
lowerneck -31.0823 -6.61387 -7.73613
upperneck 23.0642 -7.06488 4.75081
head 13.3453 -3.08582 1.70663
rclavicle 4.6118e-014 5.64548e-014
rhumerus -9.79664 -5.95958 -73.4496
rradius 57.4205
rwrist -23.8681
rhand -20.5343 -27.1287
rfingers 7.12502
rthumb 5.82399 -57.0287
lclavicle 4.6118e-014 5.64548e-014
lhumerus -11.6049 -22.9095 78.4558
lradius 65.7529
lwrist 23.8815
lhand -31.0375 -19.4106
lfingers 7.12502
lthumb -4.31938 10.5254
rfemur -58.0945 -9.01913 18.1643
rtibia 60.2561
rfoot -15.2503 -13.2892
rtoes 21.6783
lfemur -29.3435 25.86 -22.2661
ltibia 62.7532
lfoot -27.5295 18.6064
ltoes -17.2902
1310
root -1.77417 15.4374 2.15584 -348.827 159.318 -368.127
lowerback 45.7622 0.708791 -5.43434
upperback 7.79007 1.53369 2.72524
thorax -12.553 1.89557 4.82488
lowerneck -30.8685 -6.80491 -7.98433
upperneck 22.9903 -7.38832 5.23482
head 13.3346 -3.18169 1.87353
rclavicle 7.23576e-014 -8.74653e-015
rhumerus -10.015 -5.74013 -73.2891
rradius 57.5561
rwrist -24.0772
rhand -20.6037 -26.9932
rfingers 7.12502
rthumb 5.75699 -56.895
lclavicle 7.23576e-014 -8.74653e-015
lhumerus -11.7517 -22.8906 78.5347
lradius 65.3166
lwrist 23.8253
lhand -30.709 -19.8793
lfingers 7.12502
lthumb -4.00218 10.0629
rfemur -57.4002 -7.99626 18.1126
rtibia 60.5172
rfoot -15.4539 -13.4333
rtoes 19.7835
lfemur -28.1924 26.6037 -21.7096
ltibia 63.1027
lfoot -26.5915 18.7036
ltoes -17.7426
1311
root -1.70459 15.4429 2.06279 -348.448 158.173 -368.298
lowerback 44.756 0.982113 -5.81918
upperback 7.82903 1.64413 2.79941
thorax -12.2454 1.90798 5.07984
lowerneck -30.7027 -7.0185 -8.3441
upperneck 22.9447 -7.68341 5.70437
head 13.3496 -3.277 2.0576
rclavicle -4.77083e-014 -4.37326e-014
rhumerus -10.1533 -5.24666 -73.1237
rradius 57.6046
rwrist -24.5958
rhand -21.0762 -26.7748
rfingers 7.12502
rthumb 5.30081 -56.6885
lclavicle -4.77083e-014 -4.37326e-014
lhumerus -11.8964 -22.4831 78.9609
lradius 64.5604
lwrist 23.4125
lhand -30.6574 -20.5365
lfingers 7.12502
lthumb -3.95229 9.40657
rfemur -57.582 -6.8676 17.9438
rtibia 60.523
rfoot -15.739 -13.6214
rtoes 18.7613
lfemur -28.6565 27.1718 -21.886
ltibia 63.8505
lfoot -25.2388 19.1344
ltoes -17.608
1312
root -1.62015 15.459 1.96664 -349.245 157.246 -368.604
lowerback 45.265 1.22693 -6.27023
upperback 7.88153 1.75143 2.85955
thorax -12.34 1.97791 5.31781
lowerneck -30.6089 -7.31762 -8.87813
upperneck 22.9618 -8.08217 6.38212
head 13.4364 -3.401 2.32989
rclavicle 2.06736e-014 8.50798e-014
rhumerus -10.2105 -4.93064 -72.957
rradius 57.4601
rwrist -25.0467
rhand -21.178 -26.6514
rfingers 7.12502
rthumb 5.20247 -56.5675
lclavicle 2.06736e-014 8.50798e-014
lhumerus -11.9863 -22.1684 79.2477
lradius 63.8416
lwrist 23.1191
lhand -30.503 -20.671
lfingers 7.12502
lthumb -3.80325 9.27483
rfemur -56.0821 -5.4305 17.2674
rtibia 60.2637
rfoot -16.7741 -13.8995
rtoes 20.0107
lfemur -27.7593 27.6725 -21.4544
ltibia 64.7086
lfoot -23.5813 19.4549
ltoes -17.4869
1313
root -1.54486 15.4722 1.87971 -350.048 156.183 -369.018
lowerback 45.6571 1.55504 -6.7617
upperback 7.93684 1.9143 2.803
thorax -12.396 2.06925 5.42207
lowerneck -30.3336 -7.62346 -9.2479
upperneck 22.8504 -8.6079 7.14954
head 13.4526 -3.55696 2.58646
rclavicle -6.52014e-014 1.43125e-014
rhumerus -10.3073 -5.059 -72.9871
rradius 57.247
rwrist -25.3503
rhand -20.9217 -26.5478
rfingers 7.12502
rthumb 5.45 -56.4577
lclavicle -6.52014e-014 1.43125e-014
lhumerus -12.0214 -22.099 79.298
lradius 63.261
lwrist 23.0169
lhand -30.1167 -20.4794
lfingers 7.12502
lthumb -3.43013 9.47279
rfemur -54.7969 -3.90316 16.5277
rtibia 60.0698
rfoot -17.5616 -14.125
rtoes 21.0419
lfemur -27.2283 28.0267 -21.1726
ltibia 65.9913
lfoot -21.8432 19.8216
ltoes -16.8782
1314
root -1.47368 15.4734 1.79606 -350.658 155.101 -369.192
lowerback 45.8416 1.89193 -7.05675
upperback 7.99454 2.17416 2.75649
thorax -12.4066 2.19044 5.39378
lowerneck -29.9642 -7.86728 -9.13512
upperneck 22.692 -9.17245 7.60277
head 13.3972 -3.73491 2.63222
rclavicle -3.49861e-014 3.33958e-014
rhumerus -10.4672 -5.62602 -73.2935
rradius 56.9624
rwrist -25.3849
rhand -20.7286 -26.5195
rfingers 7.12502
rthumb 5.63637 -56.4246
lclavicle -3.49861e-014 3.33958e-014
lhumerus -12.0628 -22.0792 79.3485
lradius 62.5988
lwrist 22.8032
lhand -30.0531 -20.7066
lfingers 7.12502
lthumb -3.36873 9.24655
rfemur -53.799 -2.75298 16.3143
rtibia 59.9892
rfoot -17.9003 -14.1468
rtoes 20.0135
lfemur -27.0671 28.3372 -20.6616
ltibia 67.5677
lfoot -20.0607 20.3346
ltoes -14.965
1315
root -1.39939 15.465 1.71347 -351.208 154.064 -369.092
lowerback 46.0876 2.19426 -7.13028
upperback 8.01648 2.49456 2.77062
thorax -12.4889 2.33258 5.28679
lowerneck -29.6502 -8.39785 -10.324
upperneck 22.9426 -9.93984 9.23334
head 13.7089 -3.9405 3.32173
rclavicle -9.54166e-015 1.98785e-014
rhumerus -10.7303 -6.2983 -73.4579
rradius 56.6314
rwrist -24.9918
rhand -20.1055 -26.9605
rfingers 7.12502
rthumb 6.23798 -56.8487
lclavicle -9.54166e-015 1.98785e-014
lhumerus -12.1578 -21.9775 79.4248
lradius 61.8833
lwrist 22.5413
lhand -30.0073 -21.04
lfingers 7.12502
lthumb -3.32449 8.91384
rfemur -52.9109 -1.85334 16.465
rtibia 60.0676
rfoot -18.3175 -13.7786
rtoes 18.919
lfemur -27.0785 28.7366 -19.7738
ltibia 69.4275
lfoot -17.9096 20.9314
ltoes -13.2196
1316
root -1.32456 15.4703 1.63342 -351.858 152.911 -368.982
lowerback 46.3699 2.55151 -7.38686
upperback 8.07318 2.80858 2.83699
thorax -12.5432 2.477 5.33232
lowerneck -29.2032 -8.59613 -10.4105
upperneck 22.8113 -10.3669 9.71781
head 13.6635 -4.07617 3.44225
rclavicle 4.45278e-014 3.02153e-014
rhumerus -10.7888 -6.5855 -73.3027
rradius 56.2434
rwrist -24.9019
rhand -19.5173 -27.5306
rfingers 7.12502
rthumb 6.80579 -57.4012
lclavicle 4.45278e-014 3.02153e-014
lhumerus -12.3963 -21.5595 79.5389
lradius 61.391
lwrist 22.5125
lhand -29.7143 -20.9752
lfingers 7.12502
lthumb -3.04156 8.98287
rfemur -51.9358 -0.602702 16.4725
rtibia 60.1632
rfoot -18.9343 -13.3982
rtoes 19.7798
lfemur -27.0811 29.2247 -18.8347
ltibia 71.3366
lfoot -15.5138 21.4541
ltoes -10.831
